<?xml version="1.0" encoding="UTF-8"?>
<svg xmlns="http://www.w3.org/2000/svg" viewBox="0 0 84.66 97.7">
  <defs>
    <style>
      .cls-1, .cls-2 {
        stroke-width: 0px;
      }

      .cls-2 {
        fill: #103b42;
      }
    </style>
  </defs>
  <g id="Layer_1" data-name="Layer 1">
    <path class="cls-1" d="m1.56,30.16c-.24-.29,2.04-3.98,6.01-5.39,5.71-2.02,11.74,1.79,12.22.73.3-.65-1.77-2.41-2.64-3.16-1.59-1.36-2.76-1.86-2.64-2.23.2-.65,3.9.21,4.04-.31.09-.33-1.32-1.12-2.79-1.59-2.51-.81-4.4-.44-4.46-.79-.09-.52,4.12-1.45,4.04-1.97-.06-.4-2.63-.59-5.18-.21-1.96.29-3.28.83-3.52.41-.21-.37.58-1.19.83-1.45,1.43-1.49,3.04-1.65,3-1.97-.05-.41-2.73-.45-4.75-.44-4.26.03-5.66.27-5.71.02-.09-.41,3.43-2.22,7.56-2.28,1.15-.02,5.43-.08,8.91,2.59,5.46,4.2,5.97,12.88,6.53,12.74.36-.09-.32-3.57.93-4.14.39-.18.7.05,1.04-.21.62-.49.35-1.95,0-2.9-.81-2.19-2.64-3.31-2.49-3.52.16-.22,2,1.19,2.38.83.68-.63-3.89-6.21-3.32-6.73.22-.2,1.63,1.56,2.18,1.24.54-.31-.08-2.47-.62-3.83-.96-2.41-2.17-3.63-1.97-3.83.24-.24,2.44.93,4.14,3,3.83,4.65,3.16,11.42,3,13.05-.35,3.57-1.42,6.13-.93,6.32.37.15,1.42-1.17,1.97-2.59.71-1.86.29-3.54.73-3.63.33-.07.8.81.84.88.38.71.25,1.18.5,1.29.33.15,1.12-.44,1.45-1.14,1.03-2.21-2.45-5.58-1.97-6.01.26-.23,1.48.6,2.32,1.42,1.04,1.01,1.34,1.86,1.51,1.79.26-.1.02-2.22-1.08-4.27-1.19-2.23-2.79-3.25-2.55-3.6.2-.29,1.46.19,2.24.61,1.19.64,1.56,1.28,1.8,1.15.43-.22-.16-2.53-1.11-4.8C32.57,1.86,31,.18,31.19.01c.25-.22,3.89,2.18,5.91,6.42.8,1.69,2.53,6.1.93,11.29-1.32,4.31-4.93,5.66-4.35,6.84.72,1.46,5.64-1.08,12.53-.04,5.95.9,10.34,4.01,10.16,4.5-.23.63-8.66-1.82-8.91-1.04-.07.23.61.53,1.48,1.76.33.46,1.01,1.42.79,1.66-.28.32-1.78-.91-4.34-1.94-2.6-1.04-4.96-1.35-5.12-.96-.08.19.42.44,1.01,1.44.25.43.58.99.43,1.17-.21.24-1.2-.46-2.28-.96-2.44-1.13-5.6-1.32-6.07-.4-.24.46.22,1.19.57,1.57,1.16,1.25,3.24.97,4.18.94,4.91-.14,9.18,5.68,9.81,6.54,4.44,6.06,2.45,13.89,2.41,13.89-.03,0,.16-4.06-2.05-8.29-.78-1.49-1.69-2.67-2.07-2.52-.31.12-.05.99-.42,2.35-.32,1.19-1.03,2.4-1.35,2.32-.45-.11.37-2.65-.4-5.99-.41-1.77-1.23-3.68-1.72-3.6-.8.13-.38,5.49-.98,5.55-.34.03-.52-1.68-1.73-3.88-1.06-1.92-2.59-3.6-3.02-3.37-.55.29,1.02,3.6.33,4-.57.34-1.83-1.81-4.64-3.27-2.33-1.21-5-1.58-5.24-1.05-.38.82,5.61,2.43,7.67,7.56,1.5,3.74.2,7.6-.21,8.81-1.01,3-2.95,5.49-3.42,5.28-.41-.18.63-2.32.93-6.11.33-4.1-.44-7.28-.64-7.27-.14,0,.04,1.53-.71,3.52-.39,1.04-1.09,2.35-1.42,2.26-.34-.09-.02-1.57-.08-4.08-.05-2.3-.41-4.74-.71-4.74-.45,0-.71,5.48-1.19,5.47-.21,0-.25-1.08-.81-2.99-.12-.4-.47-1.59-.97-2.64-1.03-2.17-2.01-2.28-3.33-4.34-1.45-2.25-.73-2.82-1.74-3.84-2.55-2.59-8.39-.3-8.6-1.04-.19-.65,4.33-2.5,4.25-2.69-.09-.22-5.95,2.1-6.22,1.55-.22-.45,3.6-2.4,3.32-3.11-.23-.58-3.14-.1-5.59.73-3.81,1.28-5.81,3.14-6.01,2.9Z"/>
    <path class="cls-2" d="m66.83,88.67c-1.5.53-5.52,1.07-7.06.13-1.35-.82-1.17-1.66-2.67-2.4-1.82-.9-2.88-.04-6.4-.53-1.59-.22-3.3-.46-3.46-1.2-.3-1.34,4.82-2.76,4.66-4.13-.26-2.33-15.33-1.61-15.59-3.46-.12-.89,3.15-2.5,15.72-5.6-11.37.31-22.74.62-34.11.93-3.2-5.33-3.36-7.07-2.8-7.6.78-.73,2.47,1.34,5.33,1.07,3.59-.35,4.1-3.93,8.53-4.8,2.07-.41,2.14.34,4.13-.13,4.08-.98,4.35-4.26,6.93-4.53,3.74-.39,5.73,6.26,9.33,5.73,2.38-.35,2.4-3.37,4.8-3.73,3.46-.52,5.06,5.5,9.46,5.6,3.05.06,3.8-2.79,6.93-2.4,2.16.27,2.78,1.74,5.73,3.6,2.54,1.59,5.08,2.39,7.2,2.8-5.63,11.35-11.97,19.01-16.66,20.66Z"/>
  </g>
  <g id="Layer_2" data-name="Layer 2">
    <path class="cls-1" d="m55.08,24.57c-24.64-3.41-45.6,17.36-39.56,41.98,7.57,26.6,40.28,34.91,59.42,14.69,4.87-5.03,8.14-11.59,9.72-18.69-.25,7.28-2.86,14.62-7.47,20.6-18.69,23.93-55.49,17.02-65.98-10.99C.85,44.09,26.23,15.85,55.08,24.57h0Z"/>
  </g>
</svg>